<?xml version="1.0" encoding="UTF-8"?>
<svg width="95px" height="40px" viewBox="0 0 95 40" version="1.1" xmlns="http://www.w3.org/2000/svg" xmlns:xlink="http://www.w3.org/1999/xlink">
    <!-- Generator: Sketch 48.2 (47327) - http://www.bohemiancoding.com/sketch -->
    <title>Logo Copy</title>
    <desc>Created with Sketch.</desc>
    <defs></defs>
    <g id="Nav-/-Project" stroke="none" stroke-width="1" fill="none" fill-rule="evenodd" transform="translate(-150.000000, -30.000000)">
        <g id="Nav" fill="#2B2B2B">
            <g id="Logo" transform="translate(150.000000, 30.000000)">
                <g id="Logo/v2">
                    <g id="Logo">
                        <polygon id="Triangle" points="20 0 40 40 0 40"></polygon>
                        <path d="M60.0024054,20.0776149 C64.9340968,20.6936185 68.75,24.9011618 68.75,30 C68.75,35.0988382 64.9340968,39.3063815 60.0024054,39.9223851 L60.0024054,40 L41.25,40 L41.25,0 L60.0024054,0 L60.0024054,0.0776148624 C64.9340968,0.693618452 68.75,4.90116181 68.75,10 C68.75,15.0988382 64.9340968,19.3063815 60.0024054,19.9223851 L60.0024054,20.0776149 Z" id="Combined-Shape"></path>
                        <path d="M90,40 C77.5,40 68.75,32.5 68.75,20 C68.75,7.5 77.5,0 90,0 C90,11.2 90,8.954305 90,20 C90,31.045695 90,32 90,40 Z M90,0 L95,0 L95,40 L90,40 L90,0 Z" id="Combined-Shape"></path>
                    </g>
                </g>
            </g>
        </g>
    </g>
</svg>