<?xml version="1.0" encoding="UTF-8"?>
<svg width="76px" height="32px" viewBox="0 0 76 32" version="1.1" xmlns="http://www.w3.org/2000/svg" xmlns:xlink="http://www.w3.org/1999/xlink">
    <!-- Generator: Sketch 48.2 (47327) - http://www.bohemiancoding.com/sketch -->
    <title>Logo/v2</title>
    <desc>Created with Sketch.</desc>
    <defs></defs>
    <g id="Symbols" stroke="none" stroke-width="1" fill="none" fill-rule="evenodd">
        <g id="Logo/v2" fill="#2B2B2B">
            <g id="Logo">
                <polygon id="Triangle" points="16 0 32 32 0 32"></polygon>
                <path d="M48.0019243,16.0620919 C51.9472774,16.5548948 55,19.9209294 55,24 C55,28.0790706 51.9472774,31.4451052 48.0019243,31.9379081 L48.0019243,32 L33,32 L33,0 L48.0019243,0 L48.0019243,0.0620918899 C51.9472774,0.554894762 55,3.92092945 55,8 C55,12.0790706 51.9472774,15.4451052 48.0019243,15.9379081 L48.0019243,16.0620919 Z" id="Combined-Shape"></path>
                <path d="M72,32 C62,32 55,26 55,16 C55,6 62,0 72,0 C72,8.96 72,7.163444 72,16 C72,24.836556 72,25.6 72,32 Z M72,0 L76,0 L76,32 L72,32 L72,0 Z" id="Combined-Shape"></path>
            </g>
        </g>
    </g>
</svg>
