<?xml version="1.0" encoding="UTF-8"?>
<svg width="74px" height="40px" viewBox="0 0 74 40" version="1.1" xmlns="http://www.w3.org/2000/svg" xmlns:xlink="http://www.w3.org/1999/xlink">
    <!-- Generator: Sketch 48.1 (47250) - http://www.bohemiancoding.com/sketch -->
    <title>Logo</title>
    <desc>Created with Sketch.</desc>
    <defs>
        <linearGradient x1="-105.019555%" y1="-17.9050295%" x2="47.6690231%" y2="94.8773815%" id="linearGradient-1">
            <stop stop-color="#767676" stop-opacity="0" offset="0%"></stop>
            <stop stop-color="#353535" offset="100%"></stop>
        </linearGradient>
        <linearGradient x1="-118.756337%" y1="-142.797729%" x2="100%" y2="100%" id="linearGradient-2">
            <stop stop-color="#767676" stop-opacity="0" offset="0%"></stop>
            <stop stop-color="#353535" offset="100%"></stop>
        </linearGradient>
    </defs>
    <g id="Symbols" stroke="none" stroke-width="1" fill="none" fill-rule="evenodd">
        <g id="Logo">
            <path d="M72.9565246,0 C60.4256987,1.50952428e-13 50,9.48307234 50,20.6822044 C50,31.8970756 60.7296182,40 73.2830945,40 C74,40 74,40 74,39.3493231 C74,22.33816 74,9.23806802 74,0.67810506 C74,0 74,0 72.9565246,0 Z" id="Combined-Shape" fill="url(#linearGradient-1)"></path>
            <path d="M49,0 C43.1593294,1.38777878e-15 33,5 33,8 C33,9 35,11 36,14 C37,17 37,19 37,20 C37,21 37,23 36,26 C35,29 33,31.000505 33,32 C33,35 40.7249072,40 49,40 C49.4787602,40 50.8120935,40 53,40 L53,7 L50,0 C49.8099218,0 49.4765884,0 49,0 Z" id="Combined-Shape" fill="url(#linearGradient-2)" transform="translate(43.000000, 20.000000) rotate(180.000000) translate(-43.000000, -20.000000) "></path>
            <path d="M35,40 L0,40 L17.0419213,1.04703695 C17.1526044,0.794047092 17.4474196,0.678684639 17.7004094,0.789367704 C17.8156537,0.839787093 17.9076593,0.931792636 17.9580787,1.04703695 L33.3545798,36.2390394 L35,40 Z" id="Triangle" fill="url(#linearGradient-1)"></path>
        </g>
    </g>
</svg>