<?xml version="1.0" encoding="UTF-8"?>
<svg width="69px" height="41px" viewBox="0 0 69 41" version="1.1" xmlns="http://www.w3.org/2000/svg" xmlns:xlink="http://www.w3.org/1999/xlink">
    <!-- Generator: Sketch 48.1 (47250) - http://www.bohemiancoding.com/sketch -->
    <title>Logo</title>
    <desc>Created with Sketch.</desc>
    <defs>
        <linearGradient x1="-105.019555%" y1="-17.9050295%" x2="47.6690231%" y2="94.8773815%" id="linearGradient-1">
            <stop stop-color="#767676" stop-opacity="0" offset="0%"></stop>
            <stop stop-color="#353535" offset="100%"></stop>
        </linearGradient>
    </defs>
    <g id="Desktop-HD" stroke="none" stroke-width="1" fill="none" fill-rule="evenodd" transform="translate(-150.000000, -30.000000)">
        <g id="Segment-1" fill="url(#linearGradient-1)">
            <g id="Nav" transform="translate(150.000000, 30.000000)">
                <g id="Logo">
                    <g>
                        <path d="M67.0508475,0 C54.4685354,1.50921495e-13 44,9.48112906 44,20.6779661 C44,31.8905392 54.7737036,39.9918031 67.3787592,39.9918031 C68.0986102,39.9918031 68.0986102,39.9918031 68.0986102,39.3412596 C68.0986102,22.3335824 68.0986102,9.23617494 68.0986102,0.677966102 C68.0986102,0 68.0986102,0 67.0508475,0 Z" id="Combined-Shape"></path>
                        <path d="M49.8224791,1.01694915 C48.4662486,1.01694915 47.3272921,1.01694915 46.6220068,1.01694915 C40.8597471,1.01694915 35.0597663,5.23810961 31.6628675,9.31317227 C28.8267162,12.7155388 35.0413307,16.236292 35.0413307,20.7015565 C35.0413307,24.4751899 28.3750078,28.5580386 30.5028515,31.4191869 C34.5977535,36.9252878 41.9812199,40.3780961 50.1452197,40.3780961 C50.853719,40.3780961 50.853719,40.3780961 50.853719,39.7378114 C50.853719,22.9983391 50.853719,10.107473 50.853719,1.68422398 C50.853719,1.01694915 50.853719,1.01694915 49.8224791,1.01694915 Z" id="Combined-Shape" transform="translate(40.468719, 20.697523) rotate(180.000000) translate(-40.468719, -20.697523) "></path>
                        <path d="M34.3300018,40 L0,40 L15.3345866,5.17396238 C15.77971,4.16305245 16.9600583,3.70439188 17.9709682,4.14951532 C18.4284804,4.35096692 18.7939637,4.71645016 18.9954153,5.17396238 L34.3300018,40 Z" id="Triangle"></path>
                    </g>
                </g>
            </g>
        </g>
    </g>
</svg>